<svg width="90" height="97" viewBox="0 0 90 97" fill="none" xmlns="http://www.w3.org/2000/svg">
<path d="M16 38C11.5817 38 8 41.5817 8 46C8 50.4183 11.5817 54 16 54C20.4183 54 24 50.4183 24 46C24 41.5817 20.4183 38 16 38ZM14.5 46L14.5 57L17.5 57L17.5 46L14.5 46Z" fill="#5C5C5C"/>
<path d="M49 29C44.5817 29 41 32.5817 41 37C41 41.4183 44.5817 45 49 45C53.4183 45 57 41.4183 57 37C57 32.5817 53.4183 29 49 29ZM49.6708 35.6584L33.6708 27.6584L32.3292 30.3416L48.3292 38.3416L49.6708 35.6584Z" fill="#5C5C5C"/>
<path d="M36.6262 78.7259C39.3652 82.1928 44.396 82.7829 47.8629 80.0439C51.3298 77.305 51.9199 72.2741 49.1809 68.8073C46.4419 65.3404 41.4111 64.7503 37.9442 67.4893C34.4774 70.2282 33.8873 75.2591 36.6262 78.7259ZM43.8334 74.9436L54.9299 66.177L53.0701 63.823L41.9737 72.5896L43.8334 74.9436Z" fill="#5C5C5C"/>
<path d="M16.5933 20.0234H7.82764L7.78076 15.1953H15.1401C16.437 15.1953 17.4995 15.0312 18.3276 14.7031C19.1558 14.3594 19.7729 13.8672 20.1792 13.2266C20.6011 12.5703 20.812 11.7734 20.812 10.8359C20.812 9.77344 20.6089 8.91406 20.2026 8.25781C19.812 7.60156 19.1948 7.125 18.3511 6.82812C17.5229 6.53125 16.4526 6.38281 15.1401 6.38281H10.2651V35H3.23389V0.875H15.1401C17.1245 0.875 18.8979 1.0625 20.4604 1.4375C22.0386 1.8125 23.3745 2.38281 24.4683 3.14844C25.562 3.91406 26.3979 4.88281 26.9761 6.05469C27.5542 7.21094 27.8433 8.58594 27.8433 10.1797C27.8433 11.5859 27.5229 12.8828 26.8823 14.0703C26.2573 15.2578 25.2651 16.2266 23.9058 16.9766C22.562 17.7266 20.8042 18.1406 18.6323 18.2188L16.5933 20.0234ZM16.2886 35H5.90576L8.64795 29.5156H16.2886C17.5229 29.5156 18.5308 29.3203 19.312 28.9297C20.0933 28.5234 20.6714 27.9766 21.0464 27.2891C21.4214 26.6016 21.6089 25.8125 21.6089 24.9219C21.6089 23.9219 21.437 23.0547 21.0933 22.3203C20.7651 21.5859 20.2339 21.0234 19.4995 20.6328C18.7651 20.2266 17.7964 20.0234 16.5933 20.0234H9.81982L9.8667 15.1953H18.3042L19.9214 17.0938C21.9995 17.0625 23.6714 17.4297 24.937 18.1953C26.2183 18.9453 27.1479 19.9219 27.7261 21.125C28.3198 22.3281 28.6167 23.6172 28.6167 24.9922C28.6167 27.1797 28.1401 29.0234 27.187 30.5234C26.2339 32.0078 24.8354 33.125 22.9917 33.875C21.1636 34.625 18.9292 35 16.2886 35Z" fill="#5C5C5C"/>
<path d="M23.0151 84.6797H30.0229C29.8823 86.9766 29.2495 89.0156 28.1245 90.7969C27.0151 92.5781 25.4604 93.9688 23.4604 94.9688C21.4761 95.9688 19.0854 96.4688 16.2886 96.4688C14.1011 96.4688 12.1401 96.0938 10.4058 95.3438C8.67139 94.5781 7.18701 93.4844 5.95264 92.0625C4.73389 90.6406 3.8042 88.9219 3.16357 86.9062C2.52295 84.8906 2.20264 82.6328 2.20264 80.1328V77.7656C2.20264 75.2656 2.53076 73.0078 3.18701 70.9922C3.85889 68.9609 4.81201 67.2344 6.04639 65.8125C7.29639 64.3906 8.78857 63.2969 10.5229 62.5312C12.2573 61.7656 14.1948 61.3828 16.3354 61.3828C19.1792 61.3828 21.5776 61.8984 23.5308 62.9297C25.4995 63.9609 27.0229 65.3828 28.1011 67.1953C29.1948 69.0078 29.8511 71.0703 30.0698 73.3828H23.0386C22.9604 72.0078 22.687 70.8438 22.2183 69.8906C21.7495 68.9219 21.0386 68.1953 20.0854 67.7109C19.1479 67.2109 17.8979 66.9609 16.3354 66.9609C15.1636 66.9609 14.1401 67.1797 13.2651 67.6172C12.3901 68.0547 11.6558 68.7188 11.062 69.6094C10.4683 70.5 10.0229 71.625 9.72607 72.9844C9.44482 74.3281 9.3042 75.9062 9.3042 77.7188V80.1328C9.3042 81.8984 9.43701 83.4531 9.70264 84.7969C9.96826 86.125 10.3745 87.25 10.9214 88.1719C11.4839 89.0781 12.2026 89.7656 13.0776 90.2344C13.9683 90.6875 15.0386 90.9141 16.2886 90.9141C17.7573 90.9141 18.9683 90.6797 19.9214 90.2109C20.8745 89.7422 21.6011 89.0469 22.1011 88.125C22.6167 87.2031 22.9214 86.0547 23.0151 84.6797Z" fill="#5C5C5C"/>
<path d="M74.5933 47.0234H65.8276L65.7808 42.1953H73.1401C74.437 42.1953 75.4995 42.0312 76.3276 41.7031C77.1558 41.3594 77.7729 40.8672 78.1792 40.2266C78.6011 39.5703 78.812 38.7734 78.812 37.8359C78.812 36.7734 78.6089 35.9141 78.2026 35.2578C77.812 34.6016 77.1948 34.125 76.3511 33.8281C75.5229 33.5312 74.4526 33.3828 73.1401 33.3828H68.2651V62H61.2339V27.875H73.1401C75.1245 27.875 76.8979 28.0625 78.4604 28.4375C80.0386 28.8125 81.3745 29.3828 82.4683 30.1484C83.562 30.9141 84.3979 31.8828 84.9761 33.0547C85.5542 34.2109 85.8433 35.5859 85.8433 37.1797C85.8433 38.5859 85.5229 39.8828 84.8823 41.0703C84.2573 42.2578 83.2651 43.2266 81.9058 43.9766C80.562 44.7266 78.8042 45.1406 76.6323 45.2188L74.5933 47.0234ZM74.2886 62H63.9058L66.6479 56.5156H74.2886C75.5229 56.5156 76.5308 56.3203 77.312 55.9297C78.0933 55.5234 78.6714 54.9766 79.0464 54.2891C79.4214 53.6016 79.6089 52.8125 79.6089 51.9219C79.6089 50.9219 79.437 50.0547 79.0933 49.3203C78.7651 48.5859 78.2339 48.0234 77.4995 47.6328C76.7651 47.2266 75.7964 47.0234 74.5933 47.0234H67.8198L67.8667 42.1953H76.3042L77.9214 44.0938C79.9995 44.0625 81.6714 44.4297 82.937 45.1953C84.2183 45.9453 85.1479 46.9219 85.7261 48.125C86.3198 49.3281 86.6167 50.6172 86.6167 51.9922C86.6167 54.1797 86.1401 56.0234 85.187 57.5234C84.2339 59.0078 82.8354 60.125 80.9917 60.875C79.1636 61.625 76.9292 62 74.2886 62Z" fill="#5C5C5C"/>
</svg>
