<svg width="81" height="77" viewBox="0 0 81 77" fill="none" xmlns="http://www.w3.org/2000/svg">
<ellipse cx="40.3115" cy="38.5" rx="40" ry="38.5" fill="#5C5C5C"/>
<path d="M70.3115 39C70.3115 56.1793 56.8225 70 40.3115 70C23.8005 70 10.3115 56.1793 10.3115 39C10.3115 21.8207 23.8005 8 40.3115 8C56.8225 8 70.3115 21.8207 70.3115 39Z" stroke="white" stroke-width="4"/>
<path d="M41.6084 52.4688C39.6396 52.4688 37.874 52.1562 36.3115 51.5312C34.749 50.8906 33.4209 50.0078 32.3271 48.8828C31.249 47.7578 30.4209 46.4531 29.8428 44.9688C29.2646 43.4688 28.9756 41.875 28.9756 40.1875V39.25C28.9756 37.3281 29.249 35.5703 29.7959 33.9766C30.3428 32.3828 31.124 31 32.1396 29.8281C33.1709 28.6562 34.4209 27.7578 35.8896 27.1328C37.3584 26.4922 39.0146 26.1719 40.8584 26.1719C42.6553 26.1719 44.249 26.4688 45.6396 27.0625C47.0303 27.6562 48.1943 28.5 49.1318 29.5938C50.085 30.6875 50.8037 32 51.2881 33.5312C51.7725 35.0469 52.0146 36.7344 52.0146 38.5938V41.4062H31.8584V36.9062H45.3818V36.3906C45.3818 35.4531 45.21 34.6172 44.8662 33.8828C44.5381 33.1328 44.0381 32.5391 43.3662 32.1016C42.6943 31.6641 41.835 31.4453 40.7881 31.4453C39.8975 31.4453 39.1318 31.6406 38.4912 32.0312C37.8506 32.4219 37.3271 32.9688 36.9209 33.6719C36.5303 34.375 36.2334 35.2031 36.0303 36.1562C35.8428 37.0938 35.749 38.125 35.749 39.25V40.1875C35.749 41.2031 35.8896 42.1406 36.1709 43C36.4678 43.8594 36.8818 44.6016 37.4131 45.2266C37.96 45.8516 38.6162 46.3359 39.3818 46.6797C40.1631 47.0234 41.0459 47.1953 42.0303 47.1953C43.249 47.1953 44.3818 46.9609 45.4287 46.4922C46.4912 46.0078 47.4053 45.2812 48.1709 44.3125L51.4521 47.875C50.9209 48.6406 50.1943 49.375 49.2725 50.0781C48.3662 50.7812 47.2725 51.3594 45.9912 51.8125C44.71 52.25 43.249 52.4688 41.6084 52.4688Z" fill="white"/>
</svg>
