<svg width="213" height="81" viewBox="0 0 213 81" fill="none" xmlns="http://www.w3.org/2000/svg">
<g clip-path="url(#clip0_1219_1611)">
<path d="M49.3897 50.5739L16.5273 61.7279C17.6968 64.6333 19.523 66.909 21.9159 68.1504C24.3089 69.3917 26.6748 69.6076 29.0318 68.798C33.2419 67.3408 35.9047 64.2915 37.0112 59.641L51 59.4611C49.0659 69.2478 43.1825 75.8502 33.3319 79.2593C26.0811 81.769 19.577 81.5621 13.8196 78.6567C8.06212 75.7512 3.93295 70.588 1.44106 63.1581C-0.798939 56.4837 -0.430103 50.0972 2.56556 43.9985C5.56123 37.9088 10.3561 33.7171 16.9592 31.4323C23.5982 29.1385 29.9404 29.5973 35.9857 32.8265C42.031 36.0558 46.2501 41.237 48.652 48.3701L49.3897 50.5649V50.5739ZM13.5857 52.6788L32.1084 46.2742C28.8878 40.9761 24.9746 39.1141 20.3776 40.7153C17.7328 41.6238 15.7987 43.1349 14.5752 45.2308C13.3428 47.3267 13.0189 49.8183 13.5857 52.6878V52.6788Z" fill="#1A3A5B"/>
<path d="M67.0224 31.2233V37.1238C72.4921 32.3746 78.2228 30 84.2323 30C89.3602 30 93.6065 31.9519 96.9621 35.8466C100.318 39.7413 102 44.7243 102 50.7778V80.991H85.7347V53.1524C85.7347 50.3011 84.889 47.8905 83.1977 45.9206C81.5064 43.9508 79.4553 42.9704 77.0353 42.9704C74.1115 42.9704 71.7185 44.2116 69.8382 46.7032C67.958 49.1947 67.0224 52.4058 67.0224 56.3455V81H51V31.2233H67.0224Z" fill="#1A3A5B"/>
<path d="M162.249 38.9571H138.971V49.6046L153.832 49.5777L153.733 49.811C151.696 61.3375 146.94 66.8272 139.357 69.5183C138.666 69.7605 136.504 69.9757 134.431 69.8232C127.799 68.8186 124.075 64.486 121.374 59.0143C120.522 57.2741 119.956 55.0316 119.355 53.0223C118.144 49.0037 117.964 45.5322 117.964 40.7691C117.964 36.3648 118.691 32.4448 119.741 28.6595C127.045 24.3987 130.025 20.7658 134.368 12.9797C135.059 11.9392 136.611 12.2262 138.083 12.2083C149.587 15.0698 152.261 27.5741 152.261 27.5741H166C165.309 24.8382 164.071 21.1515 161.72 17.2047C160.095 14.5585 157.672 11.4638 155.905 9.67874C154.334 8.09103 152.145 6.43156 150.108 5.26545C145.154 2.51163 142.857 1.77608 139.205 0.762458L136.037 0C133.596 19.2229 117.363 33.001 102.897 25.7801C102.897 26.39 102.897 27.6189 102.96 28.4083C102.637 30.1306 102.404 31.8977 102.242 33.7096C102.081 35.5306 102 37.3874 102 39.298C102 44.7429 102.7 49.8738 104.109 54.7176C104.575 56.3322 105.123 57.911 105.751 59.4538C111.638 74.9811 125.987 82.2468 138.774 80.5156C140.56 80.1927 142.193 79.7083 143.683 79.0535C146.671 77.7438 149.471 75.5821 152.091 72.5412C152.638 71.9043 153.15 71.2585 153.652 70.5857V81H165.91V38.9571H162.231H162.249Z" fill="#1A3A5B"/>
<path d="M189.5 30C176.525 30 166 41.4143 166 55.5C166 69.5857 176.525 81 189.5 81C202.475 81 213 69.5857 213 55.5C213 41.4143 202.475 30 189.5 30ZM190.498 71.3757C188.716 71.3757 187.058 70.6111 185.623 69.3069C182.201 66.9593 179.804 61.6074 179.804 55.3741C179.804 46.982 184.153 40.164 189.509 40.164C191.291 40.164 192.949 40.9286 194.384 42.2328C197.815 44.5804 200.203 49.9323 200.203 56.1656C200.203 64.5667 195.854 71.3757 190.498 71.3757Z" fill="#1A3A5B"/>
</g>
<defs>
<clipPath id="clip0_1219_1611">
<rect width="213" height="81" fill="white"/>
</clipPath>
</defs>
</svg>
