<svg width="40" height="40" viewBox="0 0 40 40" fill="none" xmlns="http://www.w3.org/2000/svg">
<path d="M20 7.49997C20.0062 6.45727 19.6212 5.45015 18.921 4.67746C18.2208 3.90478 17.2564 3.4227 16.2182 3.32641C15.1799 3.23012 14.1433 3.52662 13.3129 4.15736C12.4826 4.78811 11.919 5.70725 11.7333 6.73331C11.1839 6.83624 10.6608 7.04867 10.1952 7.35795C9.72958 7.66722 9.33096 8.06702 9.02306 8.53354C8.71515 9.00006 8.50426 9.52377 8.40295 10.0735C8.30163 10.6232 8.31195 11.1877 8.43331 11.7333C7.68108 11.8668 6.98004 12.2046 6.40685 12.7097C5.83366 13.2149 5.41037 13.8678 5.18328 14.5973C4.95618 15.3268 4.93402 16.1046 5.1192 16.8458C5.30439 17.587 5.68981 18.2631 6.23331 18.8C5.31919 19.222 4.55378 19.9102 4.03725 20.7744C3.52072 21.6386 3.27713 22.6387 3.33836 23.6436C3.39959 24.6486 3.7628 25.6117 4.38044 26.4068C4.99808 27.2019 5.84138 27.7921 6.79997 28.1C6.61695 28.7914 6.61499 29.5183 6.79428 30.2107C6.97358 30.9031 7.32809 31.5377 7.82369 32.0534C8.31929 32.5691 8.9393 32.9485 9.62403 33.1552C10.3088 33.3618 11.0352 33.3887 11.7333 33.2333C11.9063 34.1864 12.406 35.0495 13.1465 35.6741C13.887 36.2987 14.8219 36.6457 15.7905 36.6556C16.7592 36.6654 17.701 36.3375 18.454 35.7281C19.2071 35.1188 19.7243 34.2661 19.9166 33.3167L20 33.3333V7.49997Z" stroke="#043655" stroke-width="3" stroke-linecap="round" stroke-linejoin="round"/>
<path d="M26.6667 13.3333V8.33333C26.6667 6.5 28.1667 5 30.0001 5" stroke="#043655" stroke-width="3" stroke-linecap="round" stroke-linejoin="round"/>
<path d="M20 21.6667H26.6667" stroke="#043655" stroke-width="3" stroke-linecap="round" stroke-linejoin="round"/>
<path d="M20 30H30C30.8841 30 31.7319 30.3512 32.357 30.9763C32.9821 31.6014 33.3333 32.4493 33.3333 33.3333V35" stroke="#043655" stroke-width="3" stroke-linecap="round" stroke-linejoin="round"/>
<path d="M20 13.3333H33.3333" stroke="#043655" stroke-width="3" stroke-linecap="round" stroke-linejoin="round"/>
<path d="M34.1667 13.3333C34.1667 13.5543 34.0789 13.7663 33.9226 13.9226C33.7663 14.0789 33.5543 14.1667 33.3333 14.1667C33.1123 14.1667 32.9004 14.0789 32.7441 13.9226C32.5878 13.7663 32.5 13.5543 32.5 13.3333C32.5 13.1123 32.5878 12.9004 32.7441 12.7441C32.9004 12.5878 33.1123 12.5 33.3333 12.5C33.5543 12.5 33.7663 12.5878 33.9226 12.7441C34.0789 12.9004 34.1667 13.1123 34.1667 13.3333Z" stroke="#043655" stroke-width="3" stroke-linecap="round" stroke-linejoin="round"/>
<path d="M27.4999 21.6666C27.4999 21.8876 27.4121 22.0996 27.2558 22.2558C27.0996 22.4121 26.8876 22.4999 26.6666 22.4999C26.4456 22.4999 26.2336 22.4121 26.0773 22.2558C25.921 22.0996 25.8333 21.8876 25.8333 21.6666C25.8333 21.4456 25.921 21.2336 26.0773 21.0773C26.2336 20.921 26.4456 20.8333 26.6666 20.8333C26.8876 20.8333 27.0996 20.921 27.2558 21.0773C27.4121 21.2336 27.4999 21.4456 27.4999 21.6666Z" stroke="#043655" stroke-width="3" stroke-linecap="round" stroke-linejoin="round"/>
<path d="M34.1667 35.0001C34.1667 35.2211 34.0789 35.4331 33.9226 35.5893C33.7663 35.7456 33.5543 35.8334 33.3333 35.8334C33.1123 35.8334 32.9004 35.7456 32.7441 35.5893C32.5878 35.4331 32.5 35.2211 32.5 35.0001C32.5 34.7791 32.5878 34.5671 32.7441 34.4108C32.9004 34.2545 33.1123 34.1667 33.3333 34.1667C33.5543 34.1667 33.7663 34.2545 33.9226 34.4108C34.0789 34.5671 34.1667 34.7791 34.1667 35.0001Z" stroke="#043655" stroke-width="3" stroke-linecap="round" stroke-linejoin="round"/>
<path d="M30.8334 5.00008C30.8334 5.2211 30.7456 5.43306 30.5893 5.58934C30.4331 5.74562 30.2211 5.83341 30.0001 5.83341C29.7791 5.83341 29.5671 5.74562 29.4108 5.58934C29.2545 5.43306 29.1667 5.2211 29.1667 5.00008C29.1667 4.77907 29.2545 4.56711 29.4108 4.41083C29.5671 4.25455 29.7791 4.16675 30.0001 4.16675C30.2211 4.16675 30.4331 4.25455 30.5893 4.41083C30.7456 4.56711 30.8334 4.77907 30.8334 5.00008Z" stroke="#043655" stroke-width="3" stroke-linecap="round" stroke-linejoin="round"/>
</svg>
