<svg width="12" height="14" viewBox="0 0 12 14" fill="none" xmlns="http://www.w3.org/2000/svg">
<path d="M10.8553 6.73333H6.85446V8.57364L9.40858 8.56899L9.39162 8.6093C9.0415 10.6016 8.22406 11.5504 6.92078 12.0155C6.80202 12.0574 6.43032 12.0946 6.07403 12.0682C4.93424 11.8946 4.29417 11.1457 3.82992 10.2C3.6834 9.89923 3.58623 9.51163 3.48289 9.16434C3.27468 8.46977 3.24383 7.86977 3.24383 7.04651C3.24383 6.28527 3.36876 5.60775 3.54922 4.95349C4.80468 4.21705 5.31674 3.58915 6.06324 2.24341C6.182 2.06357 6.44882 2.11318 6.70177 2.11008C8.67905 2.60465 9.13867 4.76589 9.13867 4.76589H11.5C11.3812 4.29302 11.1684 3.65581 10.7643 2.97364C10.4851 2.51628 10.0687 1.9814 9.76486 1.67287C9.49495 1.39845 9.11862 1.11163 8.76851 0.910078C7.91714 0.434109 7.52229 0.306977 6.89456 0.131783L6.35011 0C5.93059 3.32248 3.14049 5.70388 0.654234 4.45581C0.654234 4.56124 0.654234 4.77364 0.665031 4.91008C0.609506 5.20775 0.569406 5.51318 0.541644 5.82636C0.513882 6.14109 0.5 6.46202 0.5 6.79225C0.5 7.73333 0.620304 8.62016 0.862452 9.45736C0.942654 9.73643 1.03674 10.0093 1.1447 10.276C2.15648 12.9597 4.62269 14.2155 6.82053 13.9163C7.12745 13.8605 7.40816 13.7767 7.66419 13.6636C8.17779 13.4372 8.659 13.0636 9.10937 12.538C9.20345 12.4279 9.29136 12.3163 9.37774 12.2V14H11.4846V6.73333H10.8522H10.8553Z" fill="white"/>
</svg>
