<svg width="16" height="16" viewBox="0 0 16 16" fill="none" xmlns="http://www.w3.org/2000/svg">
<path d="M5.33334 14.6666C5.70153 14.6666 6.00001 14.3681 6.00001 13.9999C6.00001 13.6317 5.70153 13.3333 5.33334 13.3333C4.96515 13.3333 4.66667 13.6317 4.66667 13.9999C4.66667 14.3681 4.96515 14.6666 5.33334 14.6666Z" stroke="white" stroke-linecap="round" stroke-linejoin="round"/>
<path d="M12.6667 14.6666C13.0349 14.6666 13.3333 14.3681 13.3333 13.9999C13.3333 13.6317 13.0349 13.3333 12.6667 13.3333C12.2985 13.3333 12 13.6317 12 13.9999C12 14.3681 12.2985 14.6666 12.6667 14.6666Z" stroke="white" stroke-linecap="round" stroke-linejoin="round"/>
<path d="M1.36667 1.3667H2.7L4.47334 9.6467C4.53839 9.94994 4.70712 10.221 4.95048 10.4133C5.19384 10.6055 5.49661 10.7069 5.80667 10.7H12.3267C12.6301 10.6995 12.9243 10.5956 13.1607 10.4053C13.397 10.215 13.5614 9.94972 13.6267 9.65336L14.7267 4.70003H3.41334" stroke="white" stroke-linecap="round" stroke-linejoin="round"/>
</svg>
