<svg width="75" height="28" viewBox="0 0 75 28" fill="none" xmlns="http://www.w3.org/2000/svg">
<path d="M74.9369 19.389C74.9369 24.2134 71.1404 28.125 66.4576 28.125C61.7747 28.125 57.9783 24.2134 57.9783 19.389C57.9783 14.564 61.7747 10.6525 66.4576 10.6525C71.1404 10.6525 74.9369 14.564 74.9369 19.389Z" fill="#C46043"/>
<path d="M70.3166 19.6163C70.3166 22.4941 68.7491 24.8268 66.8154 24.8268C64.882 24.8268 63.3145 22.4941 63.3145 19.6163C63.3145 16.7393 64.882 14.4057 66.8154 14.4057C68.7491 14.4057 70.3166 16.7393 70.3166 19.6163Z" fill="#C0C4C5"/>
<path d="M23.4182 10.6767V12.6996C25.3715 11.073 27.422 10.26 29.5689 10.26C31.4029 10.26 32.9206 10.9275 34.1199 12.2635C35.3202 13.5992 35.9212 15.3047 35.9212 17.3804V27.7325H30.1062V18.1931C30.1062 17.2149 29.8033 16.3886 29.1994 15.7146C28.5959 15.0397 27.8612 14.7025 26.9966 14.7025C25.9532 14.7025 25.0956 15.1291 24.4246 15.9818C23.7539 16.8349 23.4182 17.9355 23.4182 19.2844V27.7325H17.6919V10.6767H23.4182Z" fill="#C46043"/>
<path d="M5.47846 18.3774L12.1002 16.1819C10.9501 14.3651 9.55171 13.7299 7.90639 14.2758C6.96236 14.5879 6.27073 15.1048 5.83279 15.8232C5.39293 16.5416 5.27524 17.3943 5.47846 18.3774ZM18.2776 17.6551L6.53278 21.4754C6.95174 22.4696 7.60286 23.2493 8.45783 23.6752C9.31152 24.1012 10.1597 24.1757 11.0015 23.8965C12.507 23.3976 13.4578 22.3516 13.8545 20.7601L18.8538 20.6997C18.1638 24.054 16.0587 26.3146 12.5382 27.4826C9.9472 28.3412 7.6228 28.2725 5.56559 27.2758C3.50646 26.2797 2.03124 24.5101 1.13994 21.966C0.338342 19.6792 0.471459 17.4917 1.54122 15.4031C2.61033 13.3157 4.32413 11.8802 6.68487 11.0974C9.05847 10.3106 11.325 10.4699 13.4854 11.5763C15.6458 12.6812 17.1551 14.4573 18.013 16.9031L18.2776 17.6551Z" fill="#C46043"/>
<path d="M52.7262 1.99677C50.952 1.05124 49.8404 0.60899 48.533 0.262585L47.3996 7.62939e-06C46.5234 6.60513 40.7087 11.3371 35.5265 8.85646C35.5265 9.06695 35.5265 9.48794 35.5483 9.75822C35.4342 10.3499 35.3487 10.9565 35.2914 11.5796C35.2345 12.2037 35.2056 12.8435 35.2056 13.4996C35.2056 15.3694 35.4573 17.1347 35.9596 18.7968C36.1281 19.3506 36.3226 19.8927 36.547 20.4231C38.655 25.757 43.7968 28.2542 48.3809 27.6585C49.0198 27.5482 49.6063 27.3802 50.1414 27.1565C51.2114 26.708 52.215 25.9628 53.1526 24.9202C53.3474 24.703 53.5326 24.4783 53.7114 24.249V27.8274H57.2409V13.3841H56.785H53.7114H48.4446V17.042L53.7699 17.0318L53.7362 17.1126C53.0063 21.0722 51.3018 22.958 48.5857 23.8832C48.3372 23.9673 47.5639 24.04 46.8205 23.9877C44.444 23.6409 43.109 22.1555 42.1424 20.2746C41.836 19.6767 41.6357 18.9068 41.4183 18.2165C40.9836 16.8349 40.9209 15.6443 40.9209 14.0079C40.9209 12.4956 41.1814 11.1472 41.5563 9.8479C44.173 8.384 45.2408 7.13584 46.798 4.46044C47.0453 4.10171 47.6018 4.20033 48.1282 4.19601C52.2516 5.17852 53.2098 9.47592 53.2098 9.47592H58.1319C57.7027 6.5173 55.7117 4.93721 54.4236 3.45358" fill="#C46043"/>
<path d="M58.1038 27.8275H53.8125V13.3842H58.1038V27.8275Z" fill="#C46043"/>
</svg>
