<svg width="24" height="24" viewBox="0 0 24 24" fill="none" xmlns="http://www.w3.org/2000/svg">
<path d="M19.07 4.9298C17.5129 3.37102 15.4845 2.37012 13.3001 2.0826C11.1157 1.79508 8.89743 2.23703 6.98999 3.3398" stroke="white" stroke-linecap="round" stroke-linejoin="round"/>
<path d="M4 6H4.01" stroke="white" stroke-linecap="round" stroke-linejoin="round"/>
<path d="M2.28998 9.61961C1.91508 11.1467 1.90556 12.7406 2.26221 14.272C2.61886 15.8035 3.33162 17.2292 4.34262 18.4335C5.35362 19.6378 6.63437 20.5867 8.08088 21.2032C9.5274 21.8197 11.0989 22.0864 12.6678 21.9817C14.2367 21.8769 15.7588 21.4036 17.1105 20.6003C18.4623 19.797 19.6055 18.6862 20.4474 17.3582C21.2893 16.0301 21.8062 14.5223 21.9561 12.9571C22.1059 11.3918 21.8846 9.81327 21.31 8.34961" stroke="white" stroke-linecap="round" stroke-linejoin="round"/>
<path d="M16.24 7.75992C15.6646 7.18108 14.977 6.72575 14.2195 6.42179C13.462 6.11783 12.6504 5.97163 11.8344 5.99213C11.0184 6.01263 10.2152 6.1994 9.47391 6.54103C8.7326 6.88265 8.0688 7.37193 7.5231 7.97894C6.97741 8.58594 6.56131 9.29791 6.30025 10.0713C6.0392 10.8446 5.93868 11.6631 6.00486 12.4767C6.07103 13.2902 6.30251 14.0817 6.68512 14.8027C7.06772 15.5237 7.59342 16.1591 8.23004 16.6699" stroke="white" stroke-linecap="round" stroke-linejoin="round"/>
<path d="M12 18H12.01" stroke="white" stroke-linecap="round" stroke-linejoin="round"/>
<path d="M17.99 11.6602C18.0444 12.6115 17.8714 13.5622 17.4854 14.4334C17.0993 15.3046 16.5113 16.0714 15.77 16.6702" stroke="white" stroke-linecap="round" stroke-linejoin="round"/>
<path d="M12 14C13.1046 14 14 13.1046 14 12C14 10.8954 13.1046 10 12 10C10.8954 10 10 10.8954 10 12C10 13.1046 10.8954 14 12 14Z" stroke="white" stroke-linecap="round" stroke-linejoin="round"/>
<path d="M13.41 10.5897L19.07 4.92969" stroke="white" stroke-linecap="round" stroke-linejoin="round"/>
</svg>
